name Walk8.mot
datacolumns 19
datarows 25
range 1.45000000 1.47400000
endheader

                time	   L_ground_force_vx	   L_ground_force_vy	   L_ground_force_vz	   L_ground_force_px	   L_ground_force_py	   L_ground_force_pz	   R_ground_force_vx	   R_ground_force_vy	   R_ground_force_vz	   R_ground_force_px	   R_ground_force_py	   R_ground_force_pz	   L_ground_torque_x	   L_ground_torque_y	   L_ground_torque_z	   R_ground_torque_x	   R_ground_torque_y	   R_ground_torque_z	
          1.45000000	         16.29682764	        566.07786334	         38.65919510	         -0.29415413	          0.00000000	         -0.09357984	         -0.00835405	          0.24268694	          0.01344365	          0.00014785	          0.00000000	          0.00006931	          0.00000000	          0.13119159	          0.00000000	          0.00000000	         -0.00021125	          0.00000000	
          1.45100000	         16.72980673	        568.00559740	         38.84154831	         -0.29395211	          0.00000000	         -0.09360452	         -0.00980869	          0.25682745	          0.01368352	          0.00015440	          0.00000000	          0.00007227	          0.00000000	          0.13009632	          0.00000000	          0.00000000	         -0.00020329	          0.00000000	
          1.45200000	         17.16771202	        569.94698541	         39.02548293	         -0.29375312	          0.00000000	         -0.09362841	         -0.01135799	          0.27122129	          0.01388917	          0.00016092	          0.00000000	          0.00007519	          0.00000000	          0.12882963	          0.00000000	          0.00000000	         -0.00019375	          0.00000000	
          1.45300000	         17.61056048	        571.90173982	         39.21087671	         -0.29355714	          0.00000000	         -0.09365148	         -0.01300435	          0.28583256	          0.01405656	          0.00016739	          0.00000000	          0.00007808	          0.00000000	          0.12738125	          0.00000000	          0.00000000	         -0.00018253	          0.00000000	
          1.45400000	         18.05837152	        573.86956427	         39.39760426	         -0.29336413	          0.00000000	         -0.09367374	         -0.01474999	          0.30062113	          0.01418146	          0.00017376	          0.00000000	          0.00008092	          0.00000000	          0.12574071	          0.00000000	          0.00000000	         -0.00016951	          0.00000000	
          1.45500000	         18.51116746	        575.85015380	         39.58553676	         -0.29317403	          0.00000000	         -0.09369516	         -0.01659693	          0.31554238	          0.01425940	          0.00018001	          0.00000000	          0.00008368	          0.00000000	          0.12389748	          0.00000000	          0.00000000	         -0.00015458	          0.00000000	
          1.45600000	         18.96897330	        577.84319462	         39.77454197	         -0.29298682	          0.00000000	         -0.09371574	         -0.01854696	          0.33054703	          0.01428569	          0.00018609	          0.00000000	          0.00008636	          0.00000000	          0.12184125	          0.00000000	          0.00000000	         -0.00013762	          0.00000000	
          1.45700000	         19.43181621	        579.84836251	         39.96448439	         -0.29280246	          0.00000000	         -0.09373547	         -0.02060159	          0.34558086	          0.01425542	          0.00019197	          0.00000000	          0.00008892	          0.00000000	          0.11956225	          0.00000000	          0.00000000	         -0.00011852	          0.00000000	
          1.45800000	         19.89972451	        581.86531956	         40.15522564	         -0.29262091	          0.00000000	         -0.09375434	         -0.02276206	          0.36058449	          0.01416347	          0.00019761	          0.00000000	          0.00009136	          0.00000000	          0.11705158	          0.00000000	          0.00000000	         -0.00009715	          0.00000000	
          1.45900000	         20.37272660	        583.89370919	         40.34662459	         -0.29244213	          0.00000000	         -0.09377235	         -0.02502930	          0.37549315	          0.01400447	          0.00020295	          0.00000000	          0.00009365	          0.00000000	          0.11430130	          0.00000000	          0.00000000	         -0.00007340	          0.00000000	
          1.46000000	         20.85085001	        585.93315033	         40.53853755	         -0.29226610	          0.00000000	         -0.09378950	         -0.02740384	          0.39023645	          0.01377287	          0.00020795	          0.00000000	          0.00009576	          0.00000000	          0.11130435	          0.00000000	          0.00000000	         -0.00004714	          0.00000000	
          1.46100000	         21.33412078	        587.98323171	         40.73081824	         -0.29209276	          0.00000000	         -0.09380580	         -0.02988587	          0.40473813	          0.01346286	          0.00021256	          0.00000000	          0.00009768	          0.00000000	          0.10805418	          0.00000000	          0.00000000	         -0.00001824	          0.00000000	
          1.46200000	         21.82256345	        590.04350715	         40.92331784	         -0.29192211	          0.00000000	         -0.09382125	         -0.03247511	          0.41891584	          0.01306845	          0.00021671	          0.00000000	          0.00009937	          0.00000000	          0.10454438	          0.00000000	          0.00000000	          0.00001341	          0.00000000	
          1.46300000	         22.31620134	        592.11349268	         41.11588511	         -0.29175409	          0.00000000	         -0.09383587	         -0.03517084	          0.43268094	          0.01258341	          0.00022036	          0.00000000	          0.00010080	          0.00000000	          0.10076838	          0.00000000	          0.00000000	          0.00004796	          0.00000000	
          1.46400000	         22.81505716	        594.19266569	         41.30836666	         -0.29158870	          0.00000000	         -0.09384968	         -0.03797182	          0.44593822	          0.01200134	          0.00022344	          0.00000000	          0.00010196	          0.00000000	          0.09671935	          0.00000000	          0.00000000	          0.00008551	          0.00000000	
          1.46500000	         23.31915374	        596.28046560	         41.50060735	         -0.29142589	          0.00000000	         -0.09386267	         -0.04087626	          0.45858575	          0.01131561	          0.00022588	          0.00000000	          0.00010279	          0.00000000	          0.09239034	          0.00000000	          0.00000000	          0.00012621	          0.00000000	
          1.46600000	         23.82851472	        598.37629556	         41.69245062	         -0.29126564	          0.00000000	         -0.09387487	         -0.04388178	          0.47051464	          0.01051942	          0.00022761	          0.00000000	          0.00010329	          0.00000000	          0.08777452	          0.00000000	          0.00000000	          0.00017016	          0.00000000	
          1.46700000	         24.34316524	        600.47952443	         41.88373909	         -0.29110792	          0.00000000	         -0.09388629	         -0.04698536	          0.48160884	          0.00960581	          0.00022857	          0.00000000	          0.00010340	          0.00000000	          0.08286541	          0.00000000	          0.00000000	          0.00021749	          0.00000000	
          1.46800000	         24.86313223	        602.58948836	         42.07431522	         -0.29095272	          0.00000000	         -0.09389693	         -0.05018329	          0.49174496	          0.00856763	          0.00022866	          0.00000000	          0.00010309	          0.00000000	          0.07765707	          0.00000000	          0.00000000	          0.00026833	          0.00000000	
          1.46900000	         25.38844440	        604.70549187	         42.26402220	         -0.29080000	          0.00000000	         -0.09390680	         -0.05347114	          0.50079213	          0.00739759	          0.00022783	          0.00000000	          0.00010233	          0.00000000	          0.07214417	          0.00000000	          0.00000000	          0.00032278	          0.00000000	
          1.47000000	         25.91913185	        606.82680815	         42.45270489	         -0.29064976	          0.00000000	         -0.09391591	         -0.05684368	          0.50861177	          0.00608827	          0.00022597	          0.00000000	          0.00010108	          0.00000000	          0.06632202	          0.00000000	          0.00000000	          0.00038096	          0.00000000	
          1.47100000	         26.45522545	        608.95267877	         42.64021055	         -0.29050197	          0.00000000	         -0.09392426	         -0.06029485	          0.51505754	          0.00463214	          0.00022302	          0.00000000	          0.00009929	          0.00000000	          0.06018661	          0.00000000	          0.00000000	          0.00044297	          0.00000000	
          1.47200000	         26.99675614	        611.08231314	         42.82638942	         -0.29035662	          0.00000000	         -0.09393185	         -0.06381772	          0.51997513	          0.00302157	          0.00021886	          0.00000000	          0.00009693	          0.00000000	          0.05373453	          0.00000000	          0.00000000	          0.00050891	          0.00000000	
          1.47300000	         27.54375415	        613.21488814	         43.01109486	         -0.29021370	          0.00000000	         -0.09393870	         -0.06740438	          0.52320225	          0.00124886	          0.00021341	          0.00000000	          0.00009395	          0.00000000	          0.04696302	          0.00000000	          0.00000000	          0.00057888	          0.00000000	
          1.47400000	         28.09624834	        615.34954864	         43.19418356	         -0.29007318	          0.00000000	         -0.09394482	         -0.07104596	          0.52456846	         -0.00069374	          0.00020658	          0.00000000	          0.00009030	          0.00000000	          0.03987001	          0.00000000	          0.00000000	          0.00065296	          0.00000000	
